<svg width="158" height="41" viewBox="0 0 158 41" fill="none" xmlns="http://www.w3.org/2000/svg">
<path fill-rule="evenodd" clip-rule="evenodd" d="M0.659485 12.4966C0.659485 18.3647 13.0637 30.5744 13.0637 30.5744C13.0637 30.5744 25.468 18.3647 25.468 12.4966C25.468 6.62843 20.7136 0.127563 13.0637 0.127563C5.41383 0.127563 0.659485 6.62843 0.659485 12.4966Z" fill="#FFC617"/>
<path d="M42.9863 19.5532L42.4062 20.9595C41.6445 22.7642 40.9355 24.563 40.2793 26.356C39.9629 27.2231 39.4824 28.7349 38.8379 30.8911C39.8105 30.8091 41.1172 30.604 42.7578 30.2759C43.8125 30.0649 44.4512 29.9595 44.6738 29.9595C45.084 29.9595 45.2891 30.1235 45.2891 30.4517C45.2891 30.8384 45.0605 31.3833 44.6035 32.0864C44.1582 32.7778 43.6543 33.3755 43.0918 33.8794C42.7051 34.2427 42.1309 34.4946 41.3691 34.6353C40.6074 34.7759 39.418 34.8462 37.8008 34.8462C36.2891 34.8462 35.123 34.7993 34.3027 34.7056C34.291 34.7056 34.0977 34.647 33.7227 34.5298C33.0547 34.2485 32.7207 33.6626 32.7207 32.772C32.7207 32.1274 32.9023 30.9497 33.2656 29.2388C33.6406 27.5278 34.1797 25.4009 34.8828 22.8579C36.4766 17.186 37.6777 13.6821 38.4863 12.3462C38.7441 11.8892 39.0664 11.5376 39.4531 11.2915C39.8516 11.0337 40.3906 10.8345 41.0703 10.6938C41.7266 10.5532 42.4824 10.4829 43.3379 10.4829C44.1348 10.4829 44.6914 10.5884 45.0078 10.7993C45.3359 10.9985 45.5 11.3501 45.5 11.854C45.5 12.3345 45.2891 13.2368 44.8672 14.561C44.4453 15.8735 43.8184 17.5376 42.9863 19.5532Z" fill="#FFC617"/>
<path d="M58.4902 16.9517C60.2363 16.9517 61.1094 17.1567 61.1094 17.5669C61.1094 18.0356 60.7168 18.2876 59.9316 18.3228C58.9824 18.3813 58.0977 18.6509 57.2773 19.1313C56.457 19.6118 55.7246 20.2681 55.0801 21.1001C54.4473 21.9321 53.9492 22.8696 53.5859 23.9126C53.2344 24.9556 53.0586 26.0571 53.0586 27.2173C53.0586 28.4946 53.3574 29.5259 53.9551 30.311C54.5527 31.0845 55.332 31.4712 56.293 31.4712C57.1836 31.4712 57.9629 31.0142 58.6309 30.1001C59.2988 29.186 59.6328 28.1196 59.6328 26.9009C59.6328 25.9048 59.4219 24.9731 59 24.106C58.5898 23.2271 57.9863 22.4888 57.1895 21.8911C56.8496 21.6216 56.6797 21.4282 56.6797 21.311C56.6797 21.147 56.9199 20.895 57.4004 20.5552C57.9395 20.1919 58.543 19.8872 59.2109 19.6411C59.8789 19.395 60.4414 19.272 60.8984 19.272C61.4258 19.272 61.9238 19.4126 62.3926 19.6938C62.873 19.9634 63.2949 20.356 63.6582 20.8716C64.0215 21.3755 64.2969 21.9614 64.4844 22.6294C64.6836 23.2856 64.7832 23.9888 64.7832 24.7388C64.7832 25.981 64.5488 27.2114 64.0801 28.4302C63.6113 29.6372 62.9961 30.6157 62.2344 31.3657C61.25 32.3149 60.0605 33.0942 58.666 33.7036C57.2832 34.3013 55.9648 34.6001 54.7109 34.6001C53.4922 34.6001 52.2793 34.3892 51.0723 33.9673C49.877 33.5454 48.9277 32.9888 48.2246 32.2974C47.2871 31.3599 46.8184 30.0298 46.8184 28.3071C46.8184 26.9478 47.1523 25.5884 47.8203 24.229C48.4883 22.8696 49.3906 21.6392 50.5273 20.5376C51.6758 19.4243 52.9355 18.5513 54.3066 17.9185C55.6895 17.2739 57.084 16.9517 58.4902 16.9517Z" fill="#FFC617"/>
<path d="M72.7461 30.856L72.7109 31.8228C72.5469 34.1548 72.3359 36.0532 72.0781 37.5181C71.8203 38.9829 71.5273 39.8794 71.1992 40.2075C70.7539 40.688 70.0566 40.9282 69.1074 40.9282C68.0879 40.9282 67.3555 40.729 66.9102 40.3306C66.7344 40.1313 66.6172 39.9497 66.5586 39.7856C66.5 39.6216 66.4707 39.3228 66.4707 38.8892V38.731V38.5552V38.3442C66.5059 35.0513 66.8223 31.7407 67.4199 28.4126C68.0176 25.0845 68.8086 22.0552 69.793 19.3247C70.7773 16.5825 71.8555 14.4146 73.0273 12.8208C74.1992 11.2153 75.3652 10.4126 76.5254 10.4126C77.0527 10.4126 77.4453 10.5942 77.7031 10.9575C77.9727 11.3091 78.1074 11.8188 78.1074 12.4868C78.1074 13.4829 78.002 14.5435 77.791 15.6685C77.5801 16.7817 77.3223 17.6899 77.0176 18.3931C76.7246 19.0962 76.4258 19.4478 76.1211 19.4478C75.8398 19.4478 75.6992 18.9556 75.6992 17.9712V17.6372V17.4263C75.6992 16.4419 75.6758 15.7974 75.6289 15.4927C75.5938 15.188 75.5059 14.9829 75.3652 14.8774C75.2363 15.1353 75.1426 15.4341 75.084 15.7739C74.8027 17.1802 74.5742 18.4517 74.3984 19.5884C74.2227 20.7251 73.959 22.5708 73.6074 25.1255C73.5957 25.2661 73.5781 25.4243 73.5547 25.6001C73.5312 25.7759 73.5137 25.9341 73.502 26.0747H73.748C73.8887 26.063 74.0176 26.0571 74.1348 26.0571C74.252 26.0454 74.4336 26.0396 74.6797 26.0396C75.125 25.981 75.5234 25.9517 75.875 25.9517C77.2695 25.9517 77.9668 26.3149 77.9668 27.0415C77.9668 27.4165 77.832 27.8735 77.5625 28.4126C77.3047 28.9399 76.9941 29.3794 76.6309 29.731C76.2676 30.0825 75.8516 30.3403 75.3828 30.5044C74.9258 30.6567 74.2637 30.7622 73.3965 30.8208C73.209 30.8208 73.0742 30.8267 72.9922 30.8384C72.9219 30.8384 72.8398 30.8442 72.7461 30.856Z" fill="#FFC617"/>
<path d="M82.8359 17.6372L82.9062 17.4263C83.6797 15.2466 84.3477 13.7114 84.9102 12.8208C85.1797 12.3989 85.5547 12.0239 86.0352 11.6958C86.9375 11.1216 87.7871 10.8345 88.584 10.8345C89.0527 10.8345 89.4102 10.9399 89.6562 11.1509C89.9023 11.3618 90.0254 11.6665 90.0254 12.0649C90.0254 12.3345 89.8496 12.8853 89.498 13.7173C88.9004 15.1001 88.4551 16.395 88.1621 17.6021C88.3613 17.6255 88.5547 17.6606 88.7422 17.7075C89.4453 17.813 89.9082 17.936 90.1309 18.0767C90.3535 18.2056 90.4648 18.4458 90.4648 18.7974C90.4648 19.4185 90.3066 19.9927 89.9902 20.52C89.6738 21.0474 89.2578 21.4341 88.7422 21.6802C88.3555 21.856 87.7285 21.9731 86.8613 22.0317C86.709 22.4888 86.5391 23.1157 86.3516 23.9126C86.2461 24.6157 86.1289 25.5884 86 26.8306C85.9297 27.2876 85.8945 27.7153 85.8945 28.1138C85.8945 29.9653 86.791 30.8911 88.584 30.8911H88.6895H88.7422C88.9531 30.8911 89.0586 30.9263 89.0586 30.9966C89.0586 31.1841 88.8594 31.5005 88.4609 31.9458C88.0625 32.3911 87.623 32.7837 87.1426 33.1235C86.627 33.4751 86.0645 33.7563 85.4551 33.9673C84.8457 34.1782 84.2949 34.2837 83.8027 34.2837C82.5723 34.2837 81.5703 33.8677 80.7969 33.0356C80.0352 32.2036 79.6543 31.1021 79.6543 29.731C79.6543 29.145 79.7539 28.3774 79.9531 27.4282C80.1641 26.479 80.4863 25.2075 80.9199 23.6138C80.9902 23.3325 81.0664 23.0396 81.1484 22.7349C81.2305 22.4185 81.2773 22.231 81.2891 22.1724C80.8203 22.1606 80.4863 22.061 80.2871 21.8735C80.0879 21.686 79.9883 21.3813 79.9883 20.9595C79.9883 20.2212 80.2695 19.5239 80.832 18.8677C81.4062 18.2114 82.0742 17.8013 82.8359 17.6372Z" fill="#FFC617"/>
<path d="M108.693 23.1919L108.518 23.9478C108.459 24.2056 108.406 24.4282 108.359 24.6157C108.312 24.7915 108.271 24.9497 108.236 25.0903C108.213 25.2192 108.184 25.354 108.148 25.4946C107.305 29.104 106.625 31.3599 106.109 32.2622C105.875 32.6606 105.523 33.0181 105.055 33.3345C103.578 34.2954 102.418 34.7759 101.574 34.7759C100.988 34.7759 100.49 34.5649 100.08 34.1431C99.6816 33.7095 99.4824 33.1763 99.4824 32.5435C99.4824 31.395 99.9863 29.2739 100.994 26.1802C101.299 25.1958 101.574 24.3403 101.82 23.6138C102.078 22.8872 102.383 22.0669 102.734 21.1528C103.098 20.2388 103.502 19.2661 103.947 18.2349C104.404 17.2036 104.727 16.4771 104.914 16.0552C103.367 16.2778 101.879 16.3892 100.449 16.3892C99.0078 16.3892 98.2871 15.8853 98.2871 14.8774C98.2871 14.2329 98.7559 13.4126 99.6934 12.4165C100.326 11.772 100.912 11.3267 101.451 11.0806C101.99 10.8228 102.641 10.6938 103.402 10.6938C103.895 10.6938 104.568 10.7114 105.424 10.7466C106.279 10.77 107.469 10.8345 108.992 10.9399L109.484 10.9751L109.959 11.0278C111.248 11.0981 112.098 11.1802 112.508 11.2739C112.918 11.3677 113.27 11.5493 113.562 11.8188C113.797 12.0884 113.914 12.3989 113.914 12.7505C113.914 13.1255 113.838 13.5122 113.686 13.9106C113.545 14.2974 113.369 14.5845 113.158 14.772C112.865 15.1001 112.039 15.3755 110.68 15.5981C110.562 15.5981 110.439 15.6099 110.311 15.6333L109.959 15.7036C110.24 15.9849 110.381 16.2954 110.381 16.6353C110.381 16.9634 110.217 17.6724 109.889 18.7622C109.783 19.0317 109.531 19.9165 109.133 21.4165L108.869 22.4712L108.693 23.1919Z" fill="#FFC617"/>
<path d="M125.006 25.4946L124.672 25.6001C123.828 25.8345 123.219 25.9517 122.844 25.9517C122.387 25.9517 122.158 25.8345 122.158 25.6001C122.158 25.5181 122.252 25.3013 122.439 24.9497C123.096 23.9536 123.424 23.0161 123.424 22.1372C123.424 21.6333 123.336 21.1763 123.16 20.7661C122.984 20.3442 122.791 20.1333 122.58 20.1333C122.393 20.1333 122.105 20.3325 121.719 20.731C120.629 21.9146 119.762 23.1274 119.117 24.3696C118.484 25.6118 118.168 26.7192 118.168 27.6919C118.168 28.3364 118.297 28.8696 118.555 29.2915C118.824 29.7134 119.158 29.9243 119.557 29.9243C119.896 29.9243 120.529 29.561 121.455 28.8345C122.393 28.1079 123.441 27.147 124.602 25.9517L125.076 25.5649L125.006 25.4946ZM123.951 29.52V29.5903L123.881 29.52C122.791 30.7974 121.789 31.8462 120.875 32.6665C119.973 33.4751 119.135 34.0845 118.361 34.4946C117.6 34.9048 116.896 35.1099 116.252 35.1099C114.939 35.1099 113.855 34.6704 113 33.7915C112.145 32.9126 111.717 31.7993 111.717 30.4517C111.717 29.6196 111.928 28.6353 112.35 27.4985C112.771 26.3618 113.352 25.2485 114.09 24.1587C115.32 22.3774 116.867 20.8657 118.73 19.6235C120.652 18.3462 122.504 17.7075 124.285 17.7075C125.785 17.7075 127.016 18.0181 127.977 18.6392C128.949 19.2485 129.436 20.022 129.436 20.9595C129.436 21.6509 129.195 22.3833 128.715 23.1567C129.348 23.1567 129.746 23.2271 129.91 23.3677C130.074 23.4966 130.156 23.8071 130.156 24.2993C130.156 24.2524 130.127 24.4927 130.068 25.02C129.998 26.1802 129.963 27.2642 129.963 28.272C129.963 28.7993 129.969 29.1978 129.98 29.4673C129.992 29.7368 130.016 30.0474 130.051 30.3989C130.086 30.7505 130.121 31.0317 130.156 31.2427C130.25 31.7935 130.402 32.3384 130.613 32.8774C129.91 33.5688 129.236 34.0786 128.592 34.4067C127.947 34.7231 127.291 34.8813 126.623 34.8813C124.818 34.8813 123.916 33.3696 123.916 30.3462C123.916 29.9946 123.928 29.7192 123.951 29.52Z" fill="#FFC617"/>
<path d="M139.648 30.856L139.455 31.0317C139.396 31.0786 139.309 31.1606 139.191 31.2778C139.074 31.3833 138.963 31.4829 138.857 31.5767C137.521 32.8188 136.52 33.6626 135.852 34.1079C135.195 34.5532 134.598 34.7759 134.059 34.7759C133.355 34.7759 132.775 34.5708 132.318 34.1606C131.873 33.7388 131.65 33.1997 131.65 32.5435C131.65 31.8169 131.961 31.1489 132.582 30.5396C132.746 30.3755 133.168 30.0239 133.848 29.4849C134.914 28.6528 135.658 28.0435 136.08 27.6567C136.537 27.1997 136.959 26.7427 137.346 26.2856C136.865 25.2427 136.385 24.2935 135.904 23.438C135.588 22.9341 135.301 22.4653 135.043 22.0317C134.645 21.4692 134.264 21.0005 133.9 20.6255C133.549 20.2505 133.186 19.9399 132.811 19.6938C132.354 19.4243 132.125 19.1724 132.125 18.938C132.125 18.7153 132.354 18.522 132.811 18.3579C133.268 18.1938 133.83 18.1118 134.498 18.1118C136.057 18.1118 137.398 18.5103 138.523 19.3071C138.828 19.5181 139.092 19.7114 139.314 19.8872C139.537 20.063 139.812 20.3149 140.141 20.6431C140.469 20.9595 140.809 21.2935 141.16 21.645C142.098 20.4263 143.023 19.4888 143.938 18.8325C144.852 18.1646 145.666 17.8306 146.381 17.8306C146.873 17.8306 147.342 17.9243 147.787 18.1118C148.232 18.2876 148.455 18.481 148.455 18.6919C148.455 19.1372 148.262 19.6646 147.875 20.2739C147.5 20.8833 146.879 21.686 146.012 22.6821C145.297 23.5376 144.863 24.0591 144.711 24.2466C144.57 24.4341 144.295 24.8501 143.885 25.4946L148.068 32.1919C148.303 32.5786 148.42 32.9126 148.42 33.1938C148.42 33.6743 148.039 34.1196 147.277 34.5298C146.527 34.9399 145.713 35.145 144.834 35.145C143.24 35.145 142.016 34.5649 141.16 33.4048C140.75 32.8423 140.246 31.9927 139.648 30.856Z" fill="#FFC617"/>
<path d="M152.357 34.811C151.83 34.7759 151.35 34.5356 150.916 34.0903C150.482 33.6216 150.172 33.1177 149.984 32.5786C149.809 32.0278 149.721 31.3188 149.721 30.4517C149.721 28.5181 150.078 26.3384 150.793 23.9126C151.52 21.4751 152.34 19.7114 153.254 18.6216C153.617 18.1646 154.121 17.936 154.766 17.936C155.445 17.936 155.99 18.2466 156.4 18.8677C156.822 19.4888 157.033 20.3032 157.033 21.311C157.033 22.7993 156.816 24.5454 156.383 26.5493C155.961 28.5415 155.363 30.6157 154.59 32.772C154.285 33.6392 153.91 34.2251 153.465 34.5298C153.16 34.7173 152.803 34.811 152.393 34.811H152.357ZM154.467 17.145C153.365 17.1099 152.814 16.4478 152.814 15.1587C152.814 14.5142 152.973 13.77 153.289 12.9263C153.617 12.0708 153.986 11.438 154.396 11.0278C154.607 10.8052 154.818 10.647 155.029 10.5532C155.252 10.4595 155.533 10.4126 155.873 10.4126C156.459 10.4126 156.887 10.5591 157.156 10.8521C157.438 11.1333 157.578 11.6079 157.578 12.2759C157.578 13.1079 157.432 13.8989 157.139 14.6489C156.857 15.3872 156.477 15.9907 155.996 16.4595C155.516 16.9165 155.023 17.145 154.52 17.145H154.467Z" fill="#FFC617"/>
</svg>
